<?xml version="1.0" encoding="utf-8"?>
<!-- Generator: Adobe Illustrator 16.0.3, SVG Export Plug-In . SVG Version: 6.00 Build 0)  -->
<!DOCTYPE svg PUBLIC "-//W3C//DTD SVG 1.1//EN" "http://www.w3.org/Graphics/SVG/1.1/DTD/svg11.dtd">
<svg version="1.1" xmlns="http://www.w3.org/2000/svg" xmlns:xlink="http://www.w3.org/1999/xlink" x="0px" y="0px"
	 width="1700.79px" height="2400.939px" viewBox="0 0 1700.79 2400.939" enable-background="new 0 0 1700.79 2400.939"
	 xml:space="preserve">
<g id="背景">
	<rect x="165.124" y="515.198" fill="#333333" width="1370.542" height="1370.543"/>
	<g>
		<rect x="165.124" y="1510.782" fill="#FFDA2D" width="1370.542" height="64.948"/>
		<rect x="165.124" y="1414.684" fill="#FFDA2D" width="1370.542" height="64.948"/>
		<rect x="165.124" y="1318.585" fill="#FFDA2D" width="1370.542" height="64.948"/>
		<rect x="165.124" y="1606.882" fill="#FFDA2D" width="1370.542" height="161.492"/>
	</g>
	<g>
		<path fill="#FFDA2D" d="M940.422,624.736c-5.892,15.607-13.748,26.771-24.59,36.805c4.41-1.102,10.477-3.033,14.494-5.556
			c-18.949,36.245-55.061,56.687-75.604,66.551l-1.133-69.347c18.356-0.772,42.404-5.589,44.489-7.678c0-1.91,0-4.085,0-6.703
			c-1.59-1.867-25.014-7.53-44.881-9.554l-0.259-15.883c12.636-1.274,22.499-11.942,22.499-24.915
			c0-13.831-11.212-25.042-25.042-25.042c-13.83,0-25.042,11.212-25.042,25.042c0,12.972,9.864,23.64,22.5,24.915l-0.259,15.883
			c-19.868,2.023-43.292,7.687-44.88,9.554c0,2.618,0,4.793,0,6.703c2.084,2.089,26.132,6.905,44.49,7.678l-1.134,69.347
			c-20.544-9.864-56.656-30.306-75.604-66.551c4.018,2.523,10.083,4.454,14.494,5.556c-10.843-10.035-18.698-21.198-24.59-36.805
			c-0.966,16.435-0.601,37.34,0.724,48.063c1.339-5.111,2.753-10.459,5.441-14.904c23.776,67.135,77.867,88.634,83.862,95.731
			c5.995-7.097,60.085-28.596,83.863-95.731c2.688,4.444,4.103,9.792,5.44,14.904C941.022,662.076,941.389,641.171,940.422,624.736z
			 M834.051,588.457c0-9.026,7.318-16.344,16.344-16.344c9.027,0,16.343,7.318,16.343,16.344s-7.316,16.344-16.343,16.344
			C841.369,604.801,834.051,597.483,834.051,588.457z"/>
	</g>
</g>
<g id="桜">
	<g>
		<g>
			<path fill="#E09D00" d="M1069.521,1659.144c-2.152,0-4.321-0.244-6.447-0.726c-4.08-0.922-13.71-3.693-20.696-5.833
				c-5.928-1.816-58.752-18.301-88.836-37.574c-35.558-22.785-67.462-53.982-97.535-95.373c-2.112-2.907-4.176-5.884-6.114-8.769
				c-1.91,2.854-3.94,5.791-6.02,8.651c-29.416,40.489-61.453,71.272-97.943,94.108c-30.508,19.097-86.832,36.736-89.214,37.478
				c-6.964,2.165-16.524,4.977-20.532,5.925c-2.216,0.524-4.479,0.791-6.726,0.791c-7.818,0-15.282-3.269-20.478-8.967
				c-5.334-5.852-7.859-13.535-7.109-21.636c0.175-1.892,0.55-9.386,0.77-17.396l-1.433-42.301l-39.945,11.991
				c-7.91,3.055-14.561,5.762-16.358,6.558c-3.738,1.655-7.66,2.494-11.657,2.494c-14.6,0-26.185-10.731-27.546-25.518
				c-0.383-4.177-0.722-14.187-0.847-21.484c-0.042-2.469-0.924-60.867,8.285-96.101c10.681-40.857,30.492-80.841,60.564-122.232
				c2.1-2.891,4.279-5.753,6.409-8.472c-3.312-0.937-6.741-1.963-10.112-3.059c-47.594-15.462-86.771-36.419-119.768-64.067
				c-27.62-23.139-61.771-71.231-63.211-73.268c-4.2-5.938-9.826-14.157-11.979-17.695c-4.823-7.928-5.565-17.242-2.037-25.555
				c3.527-8.313,10.74-14.251,19.788-16.291c1.854-0.418,9.099-2.379,16.782-4.644l39.788-14.434l-23.749-34.284
				c-4.916-6.047-9.781-11.849-11.292-13.531c-6.197-6.911-8.636-15.932-6.691-24.753c1.944-8.821,7.949-15.982,16.475-19.646
				c3.852-1.656,13.269-5.072,20.172-7.446c2.333-0.803,57.586-19.686,93.954-21.816c5.763-0.337,11.634-0.508,17.45-0.508
				c36.971,0,75.405,6.652,117.517,20.335c3.395,1.104,6.789,2.29,10.031,3.475c-0.132-3.431-0.216-7-0.216-10.536
				c0-50.044,7.825-93.781,23.922-133.708c13.478-33.428,48.658-80.759,50.149-82.758c4.347-5.828,10.425-13.717,13.125-16.86
				c5.431-6.316,13.192-9.938,21.295-9.938c9.855,0,18.823,5.191,23.988,13.887c0.972,1.635,5.076,7.92,9.603,14.526l26.023,33.38
				l25.267-33.179c4.611-7.13,8.398-13.226,9.381-14.92c5.135-8.856,14.154-14.143,24.128-14.143
				c8.001,0.001,15.699,3.546,21.121,9.726c2.761,3.149,8.92,11.049,13.313,16.885c1.482,1.967,36.496,48.625,49.782,82.614
				c15.376,39.336,22.851,83.327,22.851,134.487c0,3.504-0.076,7.03-0.196,10.414c3.229-1.188,6.608-2.374,9.98-3.469
				c39.961-12.984,77.055-19.296,113.399-19.296c7.047,0,14.164,0.245,21.152,0.729c35.985,2.486,91.85,21.32,94.21,22.121
				c6.889,2.335,16.271,5.678,20.089,7.274c8.56,3.576,14.635,10.675,16.667,19.475c2.034,8.799-0.311,17.843-6.433,24.812
				c-1.251,1.425-5.959,7.269-10.848,13.622l-23.704,35.065l39.363,13.777c8.187,2.177,15.161,3.896,17.089,4.31
				c9.075,1.946,16.352,7.812,19.965,16.092c3.612,8.281,2.963,17.603-1.781,25.577c-2.137,3.594-7.748,11.895-11.942,17.88
				c-1.417,2.022-35.023,49.781-63.188,72.877c-32.651,26.774-72.18,47.477-120.846,63.291c-3.447,1.119-6.946,2.17-10.317,3.129
				c2.188,2.773,4.42,5.695,6.555,8.635c29.42,40.492,48.796,80.475,59.235,122.23c8.732,34.901,8.106,93.932,8.075,96.428
				c-0.093,7.295-0.373,17.259-0.709,21.36c-1.204,14.703-13.057,25.791-27.57,25.791c-3.896,0-7.725-0.798-11.381-2.37
				c-1.751-0.754-8.765-3.427-16.313-6.109l-40.674-11.709l-0.938,41.694c0.459,8.454,0.979,15.62,1.182,17.584
				c0.829,8.031-1.714,15.984-6.978,21.819C1084.905,1655.835,1077.402,1659.144,1069.521,1659.144z"/>
			<path fill="#333333" d="M909.897,753.324c5.121,0,10.078,2.304,13.603,6.321c2.502,2.854,8.494,10.531,12.842,16.305
				c1.452,1.927,35.691,47.583,48.457,80.24c14.914,38.154,22.164,80.955,22.164,130.847c0,9.212-0.541,18.621-1.048,25.411
				c6.335-2.63,15.173-6.114,23.921-8.956c38.948-12.655,75.031-18.807,110.311-18.807c6.819,0,13.704,0.237,20.462,0.705
				c34.668,2.396,89.376,20.831,91.688,21.615c6.826,2.313,15.966,5.576,19.444,7.03c5.552,2.32,9.481,6.876,10.78,12.499
				c1.3,5.624-0.232,11.442-4.202,15.961c-1.562,1.779-6.607,8.07-11.448,14.368l-31.144,46.07l51.974,18.19
				c7.819,2.083,15.53,4.007,17.936,4.522c5.886,1.262,10.586,5.021,12.895,10.313s1.868,11.293-1.209,16.465
				c-1.943,3.268-7.393,11.339-11.538,17.254c-1.385,1.976-34.226,48.649-61.34,70.883c-31.672,25.971-70.138,46.091-117.596,61.513
				c-8.881,2.885-18.157,5.31-24.871,6.942c4.516,5.27,10.647,12.69,16.108,20.209c28.652,39.437,47.502,78.29,57.625,118.779
				c8.435,33.711,7.808,91.438,7.777,93.878c-0.092,7.213-0.369,16.915-0.677,20.667c-0.775,9.468-8.344,16.608-17.604,16.608
				c-2.53,0-5.03-0.524-7.431-1.557c-2.176-0.937-9.719-3.792-17.203-6.448l-53.439-15.384l-1.238,55.052
				c0.435,8.073,0.987,16.003,1.24,18.453c0.539,5.221-1.085,10.358-4.455,14.094c-3.31,3.67-8.106,5.774-13.16,5.774
				c-1.409,0-2.837-0.161-4.238-0.479c-3.708-0.838-13.069-3.526-19.978-5.642c-2.307-0.707-56.844-17.518-86.369-36.433
				c-34.489-22.101-65.512-52.466-94.84-92.831c-5.469-7.527-10.619-15.561-14.232-21.413c-3.58,5.852-8.678,13.859-14.081,21.296
				c-28.65,39.436-59.777,69.368-95.158,91.51c-29.456,18.438-84.549,35.681-86.881,36.406c-6.884,2.14-16.195,4.873-19.863,5.741
				c-1.464,0.347-2.952,0.522-4.423,0.522c-5.012,0-9.783-2.079-13.088-5.704c-3.416-3.747-5.029-8.711-4.541-13.977
				c0.218-2.357,0.603-10.412,0.817-18.352l-1.882-55.577l-52.743,15.833c-7.557,2.914-14.925,5.89-17.167,6.883
				c-2.453,1.086-5.012,1.637-7.606,1.637c-9.314,0-16.711-6.911-17.588-16.435c-0.348-3.786-0.683-13.518-0.806-20.738
				c-0.041-2.413-0.906-59.476,7.961-93.4c10.36-39.632,29.653-78.519,58.979-118.884c5.456-7.509,11.485-14.869,15.923-20.102
				c-6.676-1.597-15.876-3.973-24.625-6.816c-46.354-15.06-84.441-35.413-116.437-62.223c-26.637-22.315-60.061-69.385-61.47-71.378
				c-4.159-5.88-9.635-13.89-11.601-17.119c-3.127-5.141-3.628-11.137-1.374-16.45s6.914-9.119,12.781-10.441
				c2.304-0.52,10.082-2.642,17.705-4.894l52.276-18.965l-31.357-45.267c-5.099-6.278-10.207-12.369-11.851-14.201
				c-4.019-4.481-5.611-10.285-4.369-15.922c1.242-5.638,5.126-10.234,10.657-12.61c3.499-1.503,12.65-4.83,19.476-7.177
				c2.282-0.785,56.284-19.24,91.287-21.29c5.56-0.325,11.231-0.491,16.857-0.491c0.009,0,0.019,0,0.027,0
				c35.886,0,73.309,6.492,114.408,19.846c8.825,2.868,17.685,6.326,24.031,8.929c-0.543-6.836-1.126-16.311-1.126-25.501
				c0-48.74,7.588-91.252,23.197-129.968c12.995-32.228,47.43-78.561,48.89-80.518c4.308-5.775,10.234-13.458,12.695-16.322
				c3.528-4.103,8.526-6.456,13.712-6.456c6.291,0,12.044,3.363,15.389,8.994c1.207,2.031,5.63,8.773,10.127,15.328l34.189,43.855
				l33.362-43.81c4.402-6.801,8.615-13.539,9.844-15.658c3.325-5.735,9.11-9.158,15.477-9.158
				C909.896,753.324,909.896,753.324,909.897,753.324 M909.899,733.324L909.899,733.324h-0.002h-0.002
				c-13.581,0-25.834,7.15-32.778,19.126c-0.895,1.542-4.544,7.412-8.919,14.185l-17.171,22.548l-17.854-22.901
				c-4.593-6.709-8.337-12.476-9.085-13.733c-6.981-11.754-19.163-18.774-32.581-18.774c-11.02-0.001-21.545,4.889-28.877,13.417
				c-3.22,3.747-9.873,12.458-13.561,17.401c-3.817,5.117-37.688,50.971-51.408,84.998c-16.208,40.202-24.276,84.052-24.635,133.95
				c-41.856-13.304-80.269-19.776-117.325-19.776c-6.033,0-12.097,0.177-18.053,0.525c-37.079,2.171-90.638,20.284-96.623,22.342
				c-5.866,2.017-16.264,5.736-20.868,7.714c-11.522,4.951-19.647,14.677-22.293,26.683c-2.646,12.003,0.639,24.243,9.011,33.579
				c1.198,1.335,5.655,6.623,10.737,12.867l16.139,23.299l-27.298,9.903c-7.801,2.295-14.439,4.073-15.865,4.395
				c-12.222,2.755-21.988,10.825-26.789,22.139c-4.801,11.314-3.817,23.946,2.698,34.656c2.566,4.217,8.797,13.238,12.359,18.274
				c3.688,5.213,36.84,51.605,64.955,75.159c33.227,27.841,72.447,49.068,119.801,64.828
				c-29.701,41.438-49.386,81.639-60.147,122.807c-9.39,35.924-8.717,92.47-8.609,98.799c0.106,6.204,0.429,17.242,0.887,22.228
				c1.817,19.73,17.94,34.605,37.504,34.605c5.401,0,10.685-1.127,15.704-3.35c1.673-0.741,8.311-3.434,15.557-6.235l27.145-8.149
				l0.983,29.022c-0.228,8.132-0.588,14.992-0.723,16.444c-1.013,10.935,2.423,21.339,9.676,29.294
				c7.086,7.773,17.244,12.23,27.868,12.23c3.021,0,6.06-0.357,9.032-1.061c4.771-1.129,15.288-4.27,21.191-6.104
				c6.106-1.9,60.494-19.109,91.556-38.552c36.739-22.992,69.04-53.723,98.66-93.883c30.244,41.078,62.407,72.24,98.25,95.207
				c31.212,19.996,85.24,36.858,91.298,38.716c5.942,1.819,16.546,4.924,21.43,6.027c2.842,0.644,5.754,0.971,8.647,0.971
				c10.707,0,20.918-4.513,28.013-12.381c7.153-7.929,10.616-18.697,9.497-29.542c-0.185-1.785-0.683-8.687-1.123-16.717
				l0.638-28.333l27.907,8.033c7.66,2.728,14.076,5.191,15.417,5.769c4.918,2.115,10.077,3.187,15.338,3.187
				c19.767,0,35.904-15.036,37.537-34.976c0.4-4.886,0.663-15.86,0.741-22.045c0.08-6.396,0.518-63.451-8.373-98.987
				c-10.531-42.121-29.832-82.412-58.969-123.078c48.45-16.076,88.054-37.045,120.981-64.045
				c28.718-23.55,61.404-69.688,65.036-74.871c3.565-5.087,9.795-14.213,12.351-18.51c6.409-10.773,7.267-23.417,2.35-34.685
				c-4.916-11.27-14.769-19.241-27.032-21.871c-1.793-0.384-8.748-2.108-16.247-4.098l-26.75-9.362l16.264-24.058
				c4.967-6.448,9.291-11.788,10.253-12.883c8.269-9.412,11.426-21.682,8.658-33.659c-2.766-11.974-10.987-21.615-22.556-26.449
				c-4.545-1.9-14.891-5.537-20.735-7.518c-6.039-2.048-60.088-20.093-96.729-22.625c-7.215-0.499-14.564-0.752-21.841-0.752
				c-36.406,0-73.469,6.129-113.196,18.728c-0.348-50.89-8.053-94.924-23.523-134.504c-13.55-34.662-47.308-79.945-51.112-84.994
				c-3.729-4.953-10.48-13.695-13.775-17.454C931.213,738.111,920.776,733.325,909.899,733.324L909.899,733.324z"/>
		</g>
	</g>
	<g>
		<g>
			<g>
				<path fill="#FFDA2D" d="M918.593,788.333c-4.387-6.444-11.406-6.339-15.599,0.232l-42.046,52.226
					c-5.205,5.803-13.97,6.037-19.478,0.521l-42.559-52.607c-4.452-6.399-11.701-6.374-16.108,0.057
					c0,0-67.843,98.979-67.843,196.588c0,18.48,2.542,38.391,2.542,38.391c0.987,7.732,7.13,17.553,13.652,21.824
					c0,0,50.657,33.176,72.7,60.433c27.419,33.907,42.479,97.08,42.479,97.08c1.808,7.583,3.338,13.808,3.401,13.832
					s5.287-3.798,11.469-8.547c0,0,123.764-95.078,123.764-223.014C984.968,885.838,918.593,788.333,918.593,788.333z"/>
			</g>
			<g>
				<path fill="#FFDA2D" d="M455.411,1025.062c-7.484,2.181-9.554,8.889-4.6,14.907l36.677,56.126
					c3.911,6.743,1.425,15.151-5.524,18.685l-63.184,24.22c-7.461,2.257-9.677,9.159-4.924,15.337c0,0,73.171,95.11,166.002,125.272
					c17.576,5.71,37.297,9.445,37.297,9.445c7.659,1.45,18.898-1.356,24.975-6.239c0,0,47.207-37.927,79.941-50.468
					c40.721-15.599,105.457-10.399,105.457-10.399c7.771,0.624,14.163,1.092,14.206,1.039c0.042-0.052-1.979-6.201-4.585-13.548
					c0,0-52.179-147.088-173.853-186.622C568.654,992.065,455.411,1025.062,455.411,1025.062z"/>
			</g>
			<g>
				<path fill="#FFDA2D" d="M537.44,1538.737c-0.239,7.792,5.501,11.833,12.756,8.981l64.713-17.537
					c7.622-1.635,14.851,3.328,16.063,11.028l3.509,67.575c-0.159,7.793,5.72,12.033,13.065,9.422
					c0,0,113.065-40.199,170.438-119.166c10.861-14.953,20.508-32.554,20.508-32.554c3.747-6.836,4.549-18.392,1.784-25.68
					c0,0-21.482-56.616-23.294-91.623c-2.253-43.549,22.697-103.509,22.697-103.509c2.995-7.197,5.415-13.133,5.378-13.189
					c-0.037-0.057-6.51-0.035-14.302,0.173c0,0-156.013,4.174-231.21,107.676C541.053,1420.84,537.44,1538.737,537.44,1538.737z"/>
			</g>
			<g>
				<path fill="#FFDA2D" d="M1051.35,1619.533c7.336,2.635,12.954-1.576,12.482-9.357l3.319-66.964
					c0.801-7.755,7.754-13.096,15.452-11.87l65.352,17.545c7.363,2.56,13.213-1.721,12.999-9.514c0,0-3.293-119.955-60.666-198.922
					c-10.865-14.95-24.623-29.563-24.623-29.563c-5.344-5.676-16.086-10.01-23.872-9.633c0,0-60.482,2.935-94.337-6.16
					c-42.113-11.314-91.428-53.57-91.428-53.57c-5.92-5.072-10.816-9.209-10.883-9.191s-2.044,6.18-4.254,13.655
					c0,0-44.242,149.666,30.955,253.168C940.339,1579.665,1051.35,1619.533,1051.35,1619.533z"/>
			</g>
			<g>
				<path fill="#FFDA2D" d="M1286.898,1155.483c4.772-6.164,2.504-12.807-5.042-14.764l-62.659-23.849
					c-7.128-3.157-10.059-11.421-6.515-18.364l36.881-56.732c4.71-6.212,2.446-13.098-5.031-15.302
					c0,0-115.101-33.936-207.934-3.773c-17.575,5.712-35.724,14.283-35.724,14.283c-7.049,3.328-14.491,12.206-16.538,19.728
					c0,0-15.898,58.43-35.009,87.816c-23.776,36.555-79.203,70.399-79.203,70.399c-6.653,4.062-12.1,7.441-12.104,7.509
					c-0.004,0.068,5.244,3.854,11.672,8.267c0,0,128.67,88.325,250.343,48.792
					C1214.679,1248.74,1286.898,1155.483,1286.898,1155.483z"/>
			</g>
		</g>
	</g>
	<g>
		<g>
			<path fill="#FFFFFF" d="M850.406,874.5c27.594-14,53.572-55.487,53.572-55.487c4.137-6.607,11.271-6.854,15.854-0.548
				c0,0,41.245,56.744,48.167,165.535s-103.011,188.201-103.011,188.201c-6.319,4.565-11.554,1.922-11.633-5.873L850.406,874.5z"/>
		</g>
		<g>
			<path fill="#FFFFFF" d="M514.719,1115.955c-4.787-30.569-36.216-68.097-36.216-68.097c-5.005-5.976-3.035-12.838,4.378-15.248
				c0,0,66.712-21.691,172.317,5.344c105.606,27.035,147.158,156.127,147.158,156.127c2.389,7.42-1.743,11.582-9.18,9.248
				L514.719,1115.955z"/>
		</g>
		<g>
			<path fill="#FFFFFF" d="M646.249,1509.049c-30.553-4.894-75.955,13.401-75.955,13.401c-7.23,2.913-13.147-1.081-13.149-8.876
				c0,0-0.015-70.15,58.331-162.232c58.347-92.084,193.959-91.711,193.959-91.711c7.795,0.021,10.477,5.236,5.959,11.589
				L646.249,1509.049z"/>
		</g>
		<g>
			<path fill="#FFFFFF" d="M1055.704,1505.925c-14.096,27.546-10.726,76.379-10.726,76.379c0.536,7.776-5.091,12.17-12.505,9.763
				c0,0-66.721-21.663-136.268-105.608c-69.546-83.947-27.284-212.808-27.284-212.808c2.43-7.407,8.218-8.346,12.863-2.086
				L1055.704,1505.925z"/>
		</g>
		<g>
			<path fill="#FFFFFF" d="M1180.289,1116.628c21.842,21.918,69.326,33.803,69.326,33.803c7.563,1.893,10.001,8.602,5.421,14.91
				c0,0-41.221,56.76-142.549,96.963c-101.33,40.201-210.823-39.813-210.823-39.813c-6.294-4.6-5.397-10.395,1.991-12.878
				L1180.289,1116.628z"/>
		</g>
	</g>
</g>
</svg>
